HIERARCHY
ROOT hip
{
	OFFSET 0.000000 0.000000 0.000000 
	CHANNELS 6 Xposition Yposition Zposition Xrotation Zrotation Yrotation
	JOINT abdomen
	{
		OFFSET 0.000000 3.402643 0.000000 
		CHANNELS 3 Xrotation Zrotation Yrotation
		JOINT chest
		{
			OFFSET 0.000000 8.438565 -0.680529 
			CHANNELS 3 Xrotation Zrotation Yrotation
			JOINT neck
			{
				OFFSET 0.000000 10.207942 -0.272212 
				CHANNELS 3 Xrotation Zrotation Yrotation
				JOINT head
				{
					OFFSET 0.000000 3.130431 0.000000 
					CHANNELS 3 Xrotation Zrotation Yrotation
					End Site
					{
						OFFSET 0.000000 3.130435 0.000000 
					}
				}
			}
			JOINT lCollar
			{
				OFFSET 3.470700 6.669187 -0.816635 
				CHANNELS 3 Yrotation Zrotation Xrotation
				JOINT lShldr
				{
					OFFSET 3.198488 0.000000 0.000000 
					CHANNELS 3 Zrotation Yrotation Xrotation
					JOINT lForeArm
					{
						OFFSET 10.139888 0.000000 0.000000 
						CHANNELS 3 Yrotation Zrotation Xrotation
						JOINT lHand
						{
							OFFSET 8.370511 0.000000 0.000000 
							CHANNELS 3 Zrotation Yrotation Xrotation
							End Site
							{
								OFFSET 4.083176 0.000000 0.000000 
							}
						}
					}
				}
			}
			JOINT rCollar
			{
				OFFSET -3.470700 6.669187 -0.816635 
				CHANNELS 3 Yrotation Zrotation Xrotation
				JOINT rShldr
				{
					OFFSET -3.198488 0.000000 0.000000 
					CHANNELS 3 Zrotation Yrotation Xrotation
					JOINT rForeArm
					{
						OFFSET -10.139888 0.000000 0.000000 
						CHANNELS 3 Yrotation Zrotation Xrotation
						JOINT rHand
						{
							OFFSET -8.370511 0.000000 0.000000 
							CHANNELS 3 Zrotation Yrotation Xrotation
							End Site
							{
								OFFSET -4.083176 0.000000 0.000000 
							}
						}
					}
				}
			}
		}
	}
	JOINT lThigh
	{
		OFFSET 5.308129 -1.633274 1.361059 
		CHANNELS 3 Xrotation Zrotation Yrotation
		JOINT lShin
		{
			OFFSET -2.041588 -20.007561 0.000000 
			CHANNELS 3 Xrotation Zrotation Yrotation
			JOINT lFoot
			{
				OFFSET 0.000000 -19.190928 -1.224953 
				CHANNELS 3 Xrotation Yrotation Zrotation
				End Site
				{
					OFFSET 0.000000 -2.449906 4.627600 
				}
			}
		}
	}
	JOINT rThigh
	{
		OFFSET -5.308129 -1.633274 1.361059 
		CHANNELS 3 Xrotation Zrotation Yrotation
		JOINT rShin
		{
			OFFSET 2.041588 -20.007561 0.000000 
			CHANNELS 3 Xrotation Zrotation Yrotation
			JOINT rFoot
			{
				OFFSET 0.000000 -19.190928 -1.224953 
				CHANNELS 3 Xrotation Yrotation Zrotation
				End Site
				{
					OFFSET 0.000000 -2.449906 4.627600 
				}
			}
		}
	}
}
MOTION
Frames: 17
Frame Time: 0.033333
0.089109 49.173851 4.591176 0.205270 1.123047 0.009955 0.000000 0.000000 0.000000 -10.488642 0.351417 -1.650420 2.484963 -0.585920 -0.439530 8.766842 -0.927730 0.165994 -3.521967 9.154817 6.304141 -9.367277 11.818094 -43.398518 -18.042606 4.992048 44.991756 -3.370089 8.179503 -8.140553 3.089181 -14.089146 8.026228 5.604158 -4.319784 -38.003483 11.859128 -5.006830 44.992558 3.121555 -5.435493 -8.235458 4.987514 3.631843 6.642224 7.386402 -2.479737 -5.760964 -8.579592 0.291124 -1.067928 3.905792 -10.654427 -17.816875 9.744925 1.353006 2.432324 -9.018291 0.084542 -0.864461 
0.083144 49.187569 4.589007 0.185161 1.132813 -0.019527 0.000000 0.000000 0.000000 -10.508008 0.341652 -1.669950 2.717973 -0.458974 -0.390691 8.814292 -0.917960 0.253874 -3.521967 9.154817 6.304141 -9.339088 11.812357 -43.223156 -18.049538 4.998953 44.992611 -3.289160 8.081790 -8.143359 3.089181 -14.089146 8.026228 5.668303 -4.257010 -38.017979 11.859128 -5.006830 44.992558 3.183263 -5.259825 -8.214639 4.850644 3.651511 6.649384 7.719011 -2.461807 -5.760164 -8.627782 0.276524 -1.107064 3.970797 -10.619869 -17.805813 9.598650 1.334451 2.453109 -8.909906 0.059517 -0.886774 
0.072971 49.204582 4.600546 0.068944 1.142578 0.029486 0.000000 0.000000 0.000000 -10.654011 0.312356 -1.738256 3.617273 -1.064446 -0.214988 8.416944 -0.429686 0.136715 -3.521967 9.154817 6.304141 -9.220813 11.681907 -42.777969 -17.919529 4.992556 44.996101 -3.364505 8.071860 -8.135032 3.089181 -14.089146 8.026228 5.733443 -4.129419 -37.797741 11.887393 -5.005120 45.000599 3.338170 -5.248274 -8.209952 4.694365 3.660418 6.636312 8.272840 -2.382041 -5.993388 -8.519623 0.338738 -1.228346 4.256723 -10.565267 -17.838373 9.251254 1.363273 2.398774 -8.754065 0.084414 -0.896213 
0.063838 49.181881 4.600187 -0.058399 1.142578 0.009958 0.000000 0.000000 0.000000 -10.507084 0.292829 -1.767555 3.821230 -0.732416 -0.224716 8.112345 -0.605462 0.273422 -3.521967 9.154817 6.304141 -9.221600 11.696463 -42.853298 -17.960287 4.993388 44.992153 -3.262670 8.046469 -8.129519 3.089181 -14.089146 8.026228 5.786612 -4.127551 -37.753845 11.901106 -5.005269 44.999432 3.275417 -5.355433 -8.218562 5.271266 3.602374 6.618625 7.358083 -2.440785 -5.738028 -8.570345 0.329578 -1.049956 4.166529 -10.600512 -17.819876 9.727204 1.284972 2.339325 -9.046803 0.053166 -0.868583 
0.048736 49.190857 4.637434 -0.360063 0.927733 0.078273 0.000000 0.000000 0.000000 -10.224524 0.556301 -2.001954 3.966939 0.703083 -0.624953 7.718371 -2.070152 0.713131 -3.521967 9.154817 6.304141 -9.502401 11.811451 -42.783455 -18.069773 4.992609 44.988811 -3.262659 8.105260 -8.141332 3.089181 -14.089146 8.026228 5.824537 -4.071290 -37.804375 11.831699 -5.006529 44.994030 2.762371 -5.248770 -8.241538 5.368158 3.895593 6.826060 7.904018 -2.422718 -6.081193 -8.784570 0.306975 -1.092978 4.771883 -10.308703 -17.746517 9.201280 1.343545 2.209755 -8.783319 0.067190 -0.872102 
0.019973 49.179054 4.691648 -0.552770 0.732412 0.302834 0.000000 0.000000 0.000000 -10.038222 0.731869 -2.226630 3.803301 0.517551 -0.585914 8.012281 -2.079930 0.683852 -3.521967 9.154817 6.304141 -9.591377 11.783659 -42.781956 -18.029022 4.991766 44.993652 -3.307307 8.148591 -8.139013 3.089181 -14.089146 8.026228 5.984480 -4.159378 -37.530880 11.838631 -5.013435 44.994884 2.603211 -6.137300 -8.331416 5.650091 4.167571 7.085028 7.852608 -2.459835 -6.431156 -8.823533 0.285440 -1.081618 5.200083 -10.013301 -17.645113 8.914084 1.354069 1.903335 -8.725895 0.102830 -0.844488 
0.006741 49.189468 4.643978 -0.328596 0.839837 0.234493 0.000000 0.000000 0.000000 -10.257127 0.614814 -2.119228 3.480196 -0.576160 -0.361408 8.195539 -1.308572 0.331945 -3.521967 9.154817 6.304141 -9.728318 11.664686 -43.111382 -18.022367 4.998393 44.995544 -3.462179 8.009528 -8.127458 3.089181 -14.089146 8.026228 6.138253 -4.247452 -37.859154 11.962891 -5.012777 44.996445 3.104283 -5.575231 -8.258501 5.337733 4.060501 7.003767 7.890428 -2.440164 -6.373527 -8.745479 0.305055 -1.093828 4.821179 -10.124104 -17.637560 9.095171 1.314454 1.968571 -8.764345 0.070154 -0.838386 
0.016947 49.202682 4.635930 -0.367633 0.966791 0.205214 0.000000 0.000000 0.000000 -10.244645 0.546508 -2.099700 3.490115 -0.634754 -0.341884 8.205530 -1.308573 0.322182 -3.521967 9.154817 6.304141 -9.987344 11.669202 -43.254856 -18.056189 4.992327 44.989857 -3.762187 8.019388 -8.104218 3.089181 -14.089146 8.026228 6.309408 -4.208434 -37.972118 11.969672 -5.006024 44.995270 2.833400 -5.396305 -8.254293 5.296121 3.932293 6.892084 8.050898 -2.422821 -6.265281 -8.627192 0.309383 -1.188452 4.839578 -10.297963 -17.737482 9.106653 1.363284 2.011094 -8.726051 0.103426 -0.833454 
-0.001968 49.185665 4.622626 -0.299135 0.917962 0.224737 0.000000 0.000000 0.000000 -10.296292 0.614810 -2.128993 3.558083 -0.498035 -0.390695 8.146882 -1.279275 0.331948 -3.521967 9.154817 6.304141 -10.140302 11.664271 -43.445568 -18.118263 4.997326 44.994057 -4.218325 8.145636 -8.109063 3.089181 -14.089146 8.026228 6.434197 -4.205488 -37.848152 11.935465 -5.012475 44.998795 2.400276 -5.762050 -8.308480 5.417292 3.972984 6.931864 7.609136 -2.469781 -6.290556 -8.775789 0.337401 -1.014142 4.667123 -10.204553 -17.632275 9.266144 1.275847 2.023297 -8.823507 0.073729 -0.804567 
-0.002790 49.194191 4.593372 -0.261275 0.878903 0.156381 0.000000 0.000000 0.000000 -10.374733 0.614798 -2.158288 3.656950 0.488254 -0.605447 8.192016 -1.943247 0.615543 -3.521967 9.154817 6.304141 -10.176765 11.774239 -43.132511 -18.145426 4.997890 44.991096 -4.189135 8.022221 -8.088540 3.089181 -14.089146 8.026228 6.504809 -4.138969 -37.843716 11.859128 -5.006830 44.992558 2.562653 -5.020504 -8.235017 5.163396 4.031995 6.937110 8.005167 -2.441361 -6.263428 -8.705604 0.274493 -1.129632 4.635899 -10.162053 -17.646517 9.132131 1.302721 2.086784 -8.715621 0.084667 -0.852990 
-0.028518 49.191349 4.623439 -0.327832 0.849599 0.283317 0.000000 0.000000 0.000000 -10.309646 0.683082 -2.216872 3.568288 -0.937492 -0.234503 8.160885 -0.810541 0.224587 -3.521967 9.154817 6.304141 -10.122631 11.702292 -43.017803 -17.973059 4.996680 44.981010 -4.277024 8.020225 -8.091688 3.089181 -14.089146 8.026228 6.588408 -4.236480 -37.826229 11.935465 -5.012475 44.998795 2.677187 -5.920284 -8.304219 5.446805 4.071767 6.991542 7.589280 -2.461269 -6.357278 -8.677721 0.344035 -1.064750 4.811574 -10.113221 -17.695299 9.105536 1.382708 1.963471 -8.823438 0.087046 -0.830587 
-0.038079 49.201294 4.609773 -0.327032 0.888658 0.322378 0.000000 0.000000 0.000000 -10.336822 0.614753 -2.265704 3.519295 -0.615223 -0.341882 8.208369 -0.947255 0.273400 -3.521967 9.154817 6.304141 -9.988798 11.730658 -42.962402 -17.891542 4.995006 44.990604 -4.628788 7.905797 -8.068944 3.089181 -14.089146 8.026228 6.644172 -4.287146 -37.707989 11.955958 -5.005872 44.996445 2.722119 -5.963396 -8.300121 5.341036 4.042534 6.961945 7.806122 -2.401801 -6.493826 -8.686539 0.322118 -1.139558 4.833303 -10.146373 -17.709383 9.024343 1.411549 1.902682 -8.716407 0.108114 -0.831242 
-0.048300 49.215942 4.607449 -0.337302 0.878895 0.293084 0.000000 0.000000 0.000000 -10.357125 0.634269 -2.265702 3.391219 -0.332022 -0.439502 8.429924 -1.269509 0.341713 -3.521967 9.154817 6.304141 -9.922874 11.712509 -43.073547 -17.905130 4.995283 44.988720 -4.687136 8.104335 -8.089699 3.089181 -14.089146 8.026228 6.648831 -4.313894 -37.612175 11.942246 -5.005721 44.996769 2.918449 -5.896123 -8.299565 4.998032 4.130403 6.992867 8.571016 -2.363262 -6.653037 -8.605694 0.311115 -1.327380 4.986869 -10.113308 -17.749733 8.732722 1.499499 1.922320 -8.617983 0.091565 -0.860302 
-0.062490 49.194199 4.602672 -0.366556 0.917958 0.283323 0.000000 0.000000 0.000000 -10.247001 0.565963 -2.265707 3.089375 -0.576162 -0.341878 8.421904 -1.103500 0.302678 -3.521967 9.154817 6.304141 -9.837997 11.754519 -43.300949 -17.980804 5.000574 44.991116 -4.342451 8.256690 -8.124428 3.089181 -14.089146 8.026228 6.691898 -4.365183 -37.861279 11.969672 -5.006024 44.995270 2.812793 -5.980153 -8.301548 5.456529 4.061042 6.980126 7.581389 -2.460231 -6.288432 -8.637833 0.299289 -1.107175 4.774180 -10.184215 -17.741793 9.245638 1.431917 1.992970 -8.823812 0.101110 -0.823969 
-0.072761 49.204582 4.596797 -0.386197 0.927724 0.273560 0.000000 0.000000 0.000000 -10.089438 0.517149 -2.334066 2.567385 0.146481 -0.380858 8.615401 -1.621000 0.615264 -3.521967 9.154817 6.304141 -9.812284 11.955918 -43.434193 -18.069773 4.992609 44.988811 -4.468130 8.074318 -8.084871 3.089181 -14.089146 8.026228 6.796888 -4.334139 -38.268616 11.928533 -5.005570 44.997940 2.421553 -5.906943 -8.314438 5.398839 4.051846 6.951302 7.763639 -2.420672 -6.374940 -8.441286 0.313585 -1.218491 4.789535 -10.178352 -17.761839 9.194830 1.441627 1.991050 -8.803262 0.075307 -0.857576 
-0.087189 49.192772 4.577590 -0.395708 0.947254 0.283326 0.000000 0.000000 0.000000 -10.118646 0.517152 -2.324301 2.707385 -0.751950 -0.175894 8.587468 -0.996074 0.361274 -3.521967 9.154817 6.304141 -9.656096 11.868328 -43.254147 -17.943100 4.995524 44.873924 -4.355149 8.019613 -8.093488 3.089181 -14.089146 8.026228 6.723281 -4.412249 -38.127747 11.969672 -5.006024 44.995270 2.628414 -5.858312 -8.297068 5.471873 4.029354 6.926915 7.575207 -2.412002 -6.285721 -8.598565 0.294959 -1.119907 4.730891 -10.178509 -17.730536 9.328203 1.411855 1.976491 -8.901541 0.080189 -0.823212 
-0.094755 49.201294 4.563676 -0.484855 0.957025 0.205213 0.000000 0.000000 0.000000 -10.097428 0.487900 -2.265626 2.980108 -0.283199 -0.322310 8.512145 -1.523380 0.498131 -3.521967 9.154817 6.304141 -9.672709 11.813664 -43.296345 -18.006075 4.993638 44.966091 -4.360696 8.058226 -8.097046 3.089181 -14.089146 8.026228 6.715861 -4.379156 -37.941483 11.942246 -5.005721 44.996769 2.638135 -5.335075 -8.252457 5.417066 4.031776 6.909031 7.822082 -2.410980 -6.212097 -8.461821 0.356538 -1.177010 4.790255 -10.188955 -17.753109 9.294802 1.412462 2.082020 -8.813042 0.075606 -0.857450 
